<svg width="56" height="56" viewBox="0 0 56 56" fill="none" xmlns="http://www.w3.org/2000/svg">
<g clip-path="url(#clip0_196_515)">
<mask id="mask0_196_515" style="mask-type:alpha" maskUnits="userSpaceOnUse" x="0" y="0" width="56" height="56">
<path d="M28 56C43.464 56 56 43.464 56 28C56 12.536 43.464 0 28 0C12.536 0 0 12.536 0 28C0 43.464 12.536 56 28 56Z" fill="black"/>
</mask>
<g mask="url(#mask0_196_515)">
<path d="M28 55.0667C42.9485 55.0667 55.0667 42.9485 55.0667 28C55.0667 13.0515 42.9485 0.93335 28 0.93335C13.0515 0.93335 0.93335 13.0515 0.93335 28C0.93335 42.9485 13.0515 55.0667 28 55.0667Z" fill="black" stroke="white" stroke-width="6"/>
<path d="M46.5136 49.0063L21.5109 16.8H16.8V39.1907H20.5687V21.5861L43.5553 51.2852C44.5925 50.5911 45.5806 49.8292 46.5136 49.0063Z" fill="url(#paint0_linear_196_515)"/>
<path d="M39.5112 16.8H35.7778V39.2H39.5112V16.8Z" fill="url(#paint1_linear_196_515)"/>
</g>
</g>
<defs>
<linearGradient id="paint0_linear_196_515" x1="33.9112" y1="36.2445" x2="44.9556" y2="49.9334" gradientUnits="userSpaceOnUse">
<stop stop-color="white"/>
<stop offset="1" stop-color="white" stop-opacity="0"/>
</linearGradient>
<linearGradient id="paint1_linear_196_515" x1="37.6445" y1="16.8" x2="37.582" y2="33.25" gradientUnits="userSpaceOnUse">
<stop stop-color="white"/>
<stop offset="1" stop-color="white" stop-opacity="0"/>
</linearGradient>
<clipPath id="clip0_196_515">
<rect width="56" height="56" fill="white"/>
</clipPath>
</defs>
</svg>
